<svg id="binary-code" xmlns="http://www.w3.org/2000/svg" width="490.667" height="490.666" viewBox="0 0 490.667 490.666">
  <g id="Group_18" data-name="Group 18">
    <g id="Group_17" data-name="Group 17">
      <path id="Path_5" data-name="Path 5" d="M437.333,0h-384A53.407,53.407,0,0,0,0,53.333V352a53.407,53.407,0,0,0,53.333,53.333h160v21.333H138.666A53.407,53.407,0,0,0,85.333,480,10.671,10.671,0,0,0,96,490.666H394.667A10.671,10.671,0,0,0,405.334,480,53.407,53.407,0,0,0,352,426.666H277.334V405.333h160A53.407,53.407,0,0,0,490.667,352V53.333A53.408,53.408,0,0,0,437.333,0ZM351.979,448a32.087,32.087,0,0,1,30.187,21.333H108.48A32.078,32.078,0,0,1,138.645,448ZM234.667,426.667V405.334H256v21.333ZM469.333,352a32.039,32.039,0,0,1-32,32h-384a32.039,32.039,0,0,1-32-32V341.333h448Zm0-32h-448V53.333a32.039,32.039,0,0,1,32-32h384a32.039,32.039,0,0,1,32,32Z" fill="#007bff"/>
    </g>
  </g>
  <g id="Group_20" data-name="Group 20">
    <g id="Group_19" data-name="Group 19">
      <path id="Path_6" data-name="Path 6" d="M270.763,64.811a10.605,10.605,0,0,0-11.627,2.3L237.8,88.448a10.665,10.665,0,0,0,15.083,15.083L256,100.416v38.251a10.677,10.677,0,0,0,21.355,0v-64A10.668,10.668,0,0,0,270.763,64.811Z" fill="#007bff"/>
    </g>
  </g>
  <g id="Group_22" data-name="Group 22">
    <g id="Group_21" data-name="Group 21">
      <path id="Path_7" data-name="Path 7" d="M334.763,64.811a10.6,10.6,0,0,0-11.627,2.3L301.8,88.448a10.665,10.665,0,0,0,15.083,15.083L320,100.416v38.251a10.667,10.667,0,0,0,21.334,0v-64A10.682,10.682,0,0,0,334.763,64.811Z" fill="#007bff"/>
    </g>
  </g>
  <g id="Group_24" data-name="Group 24">
    <g id="Group_23" data-name="Group 23">
      <path id="Path_8" data-name="Path 8" d="M202.667,64H160a10.671,10.671,0,0,0-10.667,10.667v64A10.671,10.671,0,0,0,160,149.334h42.667a10.671,10.671,0,0,0,10.667-10.667v-64A10.672,10.672,0,0,0,202.667,64ZM192,128H170.667V85.333H192Z" fill="#007bff"/>
    </g>
  </g>
  <g id="Group_26" data-name="Group 26">
    <g id="Group_25" data-name="Group 25">
      <path id="Path_9" data-name="Path 9" d="M117.333,64H74.667A10.671,10.671,0,0,0,64,74.667v64a10.671,10.671,0,0,0,10.667,10.667h42.667A10.671,10.671,0,0,0,128,138.667v-64A10.673,10.673,0,0,0,117.333,64Zm-10.666,64H85.333V85.333h21.333V128Z" fill="#007bff"/>
    </g>
  </g>
  <g id="Group_28" data-name="Group 28">
    <g id="Group_27" data-name="Group 27">
      <path id="Path_10" data-name="Path 10" d="M416,64H373.333a10.671,10.671,0,0,0-10.667,10.667v64a10.671,10.671,0,0,0,10.667,10.667H416a10.671,10.671,0,0,0,10.667-10.667v-64A10.671,10.671,0,0,0,416,64Zm-10.667,64H384V85.333h21.333Z" fill="#007bff"/>
    </g>
  </g>
  <g id="Group_30" data-name="Group 30">
    <g id="Group_29" data-name="Group 29">
      <path id="Path_11" data-name="Path 11" d="M185.429,192.811a10.651,10.651,0,0,0-11.627,2.3l-21.333,21.333a10.665,10.665,0,0,0,15.083,15.083l3.115-3.115v38.251a10.678,10.678,0,0,0,21.355,0v-64A10.666,10.666,0,0,0,185.429,192.811Z" fill="#007bff"/>
    </g>
  </g>
  <g id="Group_32" data-name="Group 32">
    <g id="Group_31" data-name="Group 31">
      <path id="Path_12" data-name="Path 12" d="M334.763,192.811a10.635,10.635,0,0,0-11.627,2.3L301.8,216.448a10.665,10.665,0,0,0,15.083,15.083L320,228.416v38.251a10.667,10.667,0,0,0,21.334,0v-64A10.682,10.682,0,0,0,334.763,192.811Z" fill="#007bff"/>
    </g>
  </g>
  <g id="Group_34" data-name="Group 34">
    <g id="Group_33" data-name="Group 33">
      <path id="Path_13" data-name="Path 13" d="M266.667,192H224a10.671,10.671,0,0,0-10.667,10.667v64A10.671,10.671,0,0,0,224,277.334h42.667a10.671,10.671,0,0,0,10.667-10.667v-64A10.672,10.672,0,0,0,266.667,192ZM256,256H234.667V213.333H256Z" fill="#007bff"/>
    </g>
  </g>
  <g id="Group_36" data-name="Group 36">
    <g id="Group_35" data-name="Group 35">
      <path id="Path_14" data-name="Path 14" d="M117.333,192H74.667A10.671,10.671,0,0,0,64,202.667v64a10.671,10.671,0,0,0,10.667,10.667h42.667A10.671,10.671,0,0,0,128,266.667v-64A10.673,10.673,0,0,0,117.333,192Zm-10.666,64H85.333V213.333h21.333V256Z" fill="#007bff"/>
    </g>
  </g>
  <g id="Group_38" data-name="Group 38">
    <g id="Group_37" data-name="Group 37">
      <path id="Path_15" data-name="Path 15" d="M416,192H373.333a10.671,10.671,0,0,0-10.667,10.667v64a10.671,10.671,0,0,0,10.667,10.667H416a10.671,10.671,0,0,0,10.667-10.667v-64A10.671,10.671,0,0,0,416,192Zm-10.667,64H384V213.333h21.333Z" fill="#007bff"/>
    </g>
  </g>
</svg>
