<svg xmlns="http://www.w3.org/2000/svg" width="512" height="447.984" viewBox="0 0 512 447.984">
  <g id="credit-card" transform="translate(0 -32.008)">
    <g id="Group_40" data-name="Group 40">
      <g id="Group_39" data-name="Group 39">
        <path id="Path_16" data-name="Path 16" d="M224,159.992v-32H32a32.053,32.053,0,0,0-32,32v64H230.752A286.512,286.512,0,0,1,224,159.992Z" fill="#007bff"/>
      </g>
    </g>
    <g id="Group_42" data-name="Group 42">
      <g id="Group_41" data-name="Group 41">
        <path id="Path_17" data-name="Path 17" d="M510.688,287.992c-21.824,33.632-55.1,62.24-102.784,89.632a48.079,48.079,0,0,1-47.712.064c-47.68-27.456-80.96-56.1-102.816-89.7H0v160a32.032,32.032,0,0,0,32,32H480a32.012,32.012,0,0,0,32-32v-160h-1.312ZM144,383.992H80a16,16,0,0,1,0-32h64a16,16,0,0,1,0,32Z" fill="#007bff"/>
      </g>
    </g>
    <g id="Group_44" data-name="Group 44">
      <g id="Group_43" data-name="Group 43">
        <path id="Path_18" data-name="Path 18" d="M502.3,81.3l-112-48a16.058,16.058,0,0,0-12.64,0l-112,48A15.961,15.961,0,0,0,256,95.992v64c0,88.032,32.544,139.488,120.032,189.888a16.086,16.086,0,0,0,15.936,0C479.456,299.608,512,248.152,512,159.992v-64A15.94,15.94,0,0,0,502.3,81.3Zm-57.792,72.7-64,80A16.173,16.173,0,0,1,368,239.992h-.672a16.058,16.058,0,0,1-12.64-7.1l-32-48a15.993,15.993,0,0,1,26.624-17.728l19.872,29.792,50.3-62.912a16.007,16.007,0,0,1,25.024,19.968Z" fill="#007bff"/>
      </g>
    </g>
  </g>
</svg>
