<svg xmlns="http://www.w3.org/2000/svg" width="276.22" height="503.604" viewBox="0 0 276.22 503.604">
  <g id="smartphone" transform="translate(-113.692)">
    <g id="Group_45" data-name="Group 45">
      <path id="Path_20" data-name="Path 20" d="M337.324,0H167.192c-28.924,0-53.5,23.584-53.5,52.5V451.164c0,28.916,24.056,52.44,52.98,52.44l170.412-.184a52.62,52.62,0,0,0,52.58-52.448l.248-398.5A52.509,52.509,0,0,0,337.324,0ZM227.68,31.476h49.36a7.868,7.868,0,1,1,0,15.736H227.68a7.868,7.868,0,1,1,0-15.736Zm-29.66,2.5a8.149,8.149,0,0,1,11.136,0,7.888,7.888,0,0,1-5.548,13.456,8.056,8.056,0,0,1-5.588-2.32,7.939,7.939,0,0,1,0-11.136Zm52.752,454.028a23.548,23.548,0,1,1,23.544-23.548A23.574,23.574,0,0,1,250.772,488.008Zm114.716-63.1H141.232V74.756H365.488V424.908Z" fill="#007bff"/>
    </g>
  </g>
</svg>
